<?xml version="1.0" encoding="iso-8859-1"?>
<!-- Uploaded to: SVG Repo, www.svgrepo.com, Generator: SVG Repo Mixer Tools -->
<svg height="800px" width="800px" version="1.1" id="Layer_1" xmlns="http://www.w3.org/2000/svg" xmlns:xlink="http://www.w3.org/1999/xlink" 
	 viewBox="0 0 504.446 504.446" xml:space="preserve">
<g transform="translate(1 1)">
	<g>
		<path style="fill:#FFE100;" d="M452.246,209.256v125.062c0,10.072-8.393,18.466-18.466,18.466h-14.269
			c-9.233-0.839-17.626-9.233-17.626-19.305V209.256H452.246z"/>
		<path style="fill:#FFE100;" d="M477.426,318.37h-25.18v15.108c0,10.072-8.393,18.466-18.466,18.466h-6.715h-6.715
			c-10.072,0-18.466-8.393-18.466-18.466V318.37h-41.967v151.082h117.508c9.233,0,16.787-7.554,16.787-16.787V335.157
			C494.213,325.925,486.659,318.37,477.426,318.37"/>
		<polygon style="fill:#FFE100;" points="435.459,7.813 443.852,209.256 410.279,209.256 418.672,7.813 		"/>
	</g>
	<path style="fill:#63D3FD;" d="M452.246,410.698c0-14.269-10.911-25.18-25.18-25.18s-25.18,10.911-25.18,25.18
		c0,14.269,10.911,25.18,25.18,25.18S452.246,424.967,452.246,410.698"/>
	<g>
		<polygon style="fill:#FFE100;" points="49.361,494.633 116.508,494.633 116.508,469.452 49.361,469.452 		"/>
		<polygon style="fill:#FFE100;" points="385.098,494.633 452.246,494.633 452.246,469.452 385.098,469.452 		"/>
		<path style="fill:#FFE100;" d="M359.918,469.452V318.37H24.18c-9.233,0-16.787,7.554-16.787,16.787v117.508
			c0,9.233,7.554,16.787,16.787,16.787H359.918z"/>
	</g>
	<path style="fill:#FFFFFF;" d="M24.18,452.666V335.157c0-9.233,7.554-16.787,16.787-16.787H24.18
		c-9.233,0-16.787,7.554-16.787,16.787v117.508c0,9.233,7.554,16.787,16.787,16.787h16.787
		C31.734,469.452,24.18,461.898,24.18,452.666"/>
	<path style="fill:#FFA800;" d="M477.426,452.666V335.157c0-9.233-7.554-16.787-16.787-16.787h16.787
		c9.233,0,16.787,7.554,16.787,16.787v117.508c0,9.233-7.554,16.787-16.787,16.787h-16.787
		C469.872,469.452,477.426,461.898,477.426,452.666"/>
	<g>
		<polygon style="fill:#63D3FD;" points="166.869,351.944 166.869,402.305 141.689,402.305 141.689,419.092 116.508,419.092 
			116.508,435.879 82.934,435.879 82.934,419.092 57.754,419.092 57.754,402.305 40.967,402.305 40.967,351.944 		"/>
		<polygon style="fill:#63D3FD;" points="326.344,351.944 326.344,402.305 301.164,402.305 301.164,419.092 275.984,419.092 
			275.984,435.879 242.41,435.879 242.41,419.092 217.229,419.092 217.229,402.305 200.443,402.305 200.443,351.944 		"/>
	</g>
	<path d="M116.508,444.272H82.934c-5.036,0-8.393-3.357-8.393-8.393v-8.393H57.754c-5.036,0-8.393-3.357-8.393-8.393v-8.393h-8.393
		c-5.036,0-8.393-3.357-8.393-8.393v-50.361c0-5.036,3.357-8.393,8.393-8.393h125.902c5.036,0,8.393,3.357,8.393,8.393v50.361
		c0,5.036-3.357,8.393-8.393,8.393h-16.787v8.393c0,5.036-3.357,8.393-8.393,8.393h-16.787v8.393
		C124.902,440.915,121.544,444.272,116.508,444.272z M91.328,427.485h16.787v-8.393c0-5.036,3.357-8.393,8.393-8.393h16.787v-8.393
		c0-5.036,3.357-8.393,8.393-8.393h16.787v-33.574H49.361v33.574h8.393c5.036,0,8.393,3.357,8.393,8.393v8.393h16.787
		c5.036,0,8.393,3.357,8.393,8.393V427.485z"/>
	<path d="M275.984,444.272H242.41c-5.036,0-8.393-3.357-8.393-8.393v-8.393h-16.787c-5.036,0-8.393-3.357-8.393-8.393v-8.393h-8.393
		c-5.036,0-8.393-3.357-8.393-8.393v-50.361c0-5.036,3.357-8.393,8.393-8.393h125.902c5.036,0,8.393,3.357,8.393,8.393v50.361
		c0,5.036-3.357,8.393-8.393,8.393h-16.787v8.393c0,5.036-3.357,8.393-8.393,8.393h-16.787v8.393
		C284.377,440.915,281.02,444.272,275.984,444.272z M250.803,427.485h16.787v-8.393c0-5.036,3.357-8.393,8.393-8.393h16.787v-8.393
		c0-5.036,3.357-8.393,8.393-8.393h16.787v-33.574H208.836v33.574h8.393c5.036,0,8.393,3.357,8.393,8.393v8.393h16.787
		c5.036,0,8.393,3.357,8.393,8.393V427.485z"/>
	<path d="M359.918,477.846H24.18C9.911,477.846-1,466.934-1,452.666V335.157c0-14.269,10.911-25.18,25.18-25.18h335.738
		c5.036,0,8.393,3.357,8.393,8.393v151.082C368.311,474.488,364.954,477.846,359.918,477.846z M24.18,326.764
		c-5.036,0-8.393,3.357-8.393,8.393v117.508c0,5.036,3.357,8.393,8.393,8.393h327.344V326.764H24.18z"/>
	<path d="M427.066,444.272c-18.466,0-33.574-15.108-33.574-33.574c0-18.466,15.108-33.574,33.574-33.574
		s33.574,15.108,33.574,33.574C460.639,429.164,445.531,444.272,427.066,444.272z M427.066,393.911
		c-9.233,0-16.787,7.554-16.787,16.787c0,9.233,7.554,16.787,16.787,16.787c9.233,0,16.787-7.554,16.787-16.787
		C443.852,401.466,436.298,393.911,427.066,393.911z"/>
	<path d="M435.459,410.698c0-5.036-3.357-8.393-8.393-8.393s-8.393,3.357-8.393,8.393c0,5.036,3.357,8.393,8.393,8.393
		S435.459,415.734,435.459,410.698"/>
	<path d="M433.78,360.338h-14.269c-14.269,0-26.859-11.751-26.859-26.859V209.256c0-5.036,3.357-8.393,8.393-8.393h50.361
		c5.036,0,8.393,3.357,8.393,8.393v125.062C460.639,348.587,448.888,360.338,433.78,360.338z M410.279,217.649v116.669
		c0,5.036,4.197,10.072,10.072,10.072h14.269c5.036,0,10.072-4.197,10.072-10.072V217.649H410.279z"/>
	<path d="M477.426,477.846H359.918c-5.036,0-8.393-3.357-8.393-8.393V318.37c0-5.036,3.357-8.393,8.393-8.393h41.967
		c5.036,0,8.393,3.357,8.393,8.393v15.108c0,5.036,4.197,10.072,10.072,10.072h14.269c5.036,0,10.072-4.197,10.072-10.072V318.37
		c0-5.036,3.357-8.393,8.393-8.393h25.18c14.269,0,25.18,10.911,25.18,25.18v117.508
		C502.607,466.934,491.695,477.846,477.426,477.846z M368.311,461.059h109.115c5.036,0,8.393-3.357,8.393-8.393V335.157
		c0-5.036-3.357-8.393-8.393-8.393h-16.787v6.715c0,14.269-11.751,26.859-26.859,26.859h-14.269
		c-14.269,0-26.859-11.751-26.859-26.859v-6.715h-25.18v134.295H368.311z"/>
	<path d="M66.148,377.125c-5.036,0-8.393-3.357-8.393-8.393v-16.787c0-5.036,3.357-8.393,8.393-8.393s8.393,3.357,8.393,8.393
		v16.787C74.541,373.767,71.184,377.125,66.148,377.125z"/>
	<path d="M91.328,377.125c-5.036,0-8.393-3.357-8.393-8.393v-16.787c0-5.036,3.357-8.393,8.393-8.393
		c5.036,0,8.393,3.357,8.393,8.393v16.787C99.721,373.767,96.364,377.125,91.328,377.125z"/>
	<path d="M116.508,377.125c-5.036,0-8.393-3.357-8.393-8.393v-16.787c0-5.036,3.357-8.393,8.393-8.393
		c5.036,0,8.393,3.357,8.393,8.393v16.787C124.902,373.767,121.544,377.125,116.508,377.125z"/>
	<path d="M141.689,377.125c-5.036,0-8.393-3.357-8.393-8.393v-16.787c0-5.036,3.357-8.393,8.393-8.393
		c5.036,0,8.393,3.357,8.393,8.393v16.787C150.082,373.767,146.725,377.125,141.689,377.125z"/>
	<path d="M225.623,377.125c-5.036,0-8.393-3.357-8.393-8.393v-16.787c0-5.036,3.357-8.393,8.393-8.393s8.393,3.357,8.393,8.393
		v16.787C234.016,373.767,230.659,377.125,225.623,377.125z"/>
	<path d="M250.803,377.125c-5.036,0-8.393-3.357-8.393-8.393v-16.787c0-5.036,3.357-8.393,8.393-8.393s8.393,3.357,8.393,8.393
		v16.787C259.197,373.767,255.839,377.125,250.803,377.125z"/>
	<path d="M275.984,377.125c-5.036,0-8.393-3.357-8.393-8.393v-16.787c0-5.036,3.357-8.393,8.393-8.393s8.393,3.357,8.393,8.393
		v16.787C284.377,373.767,281.02,377.125,275.984,377.125z"/>
	<path d="M301.164,377.125c-5.036,0-8.393-3.357-8.393-8.393v-16.787c0-5.036,3.357-8.393,8.393-8.393
		c5.036,0,8.393,3.357,8.393,8.393v16.787C309.557,373.767,306.2,377.125,301.164,377.125z"/>
	<path d="M443.852,217.649L443.852,217.649h-33.574c-2.518,0-4.197-0.839-5.875-2.518c-1.679-1.679-2.518-4.197-2.518-5.875
		l8.393-201.443c0-4.197,4.197-8.393,8.393-8.393h16.787c4.197,0,8.393,3.357,8.393,8.393l8.393,199.764c0,0.839,0,1.679,0,1.679
		C452.246,213.452,448.888,217.649,443.852,217.649z M418.672,200.862h16.787l-8.393-184.656l0,0L418.672,200.862z"/>
	<path d="M452.246,251.223h-50.361c-5.036,0-8.393-3.357-8.393-8.393c0-5.036,3.357-8.393,8.393-8.393h50.361
		c5.036,0,8.393,3.357,8.393,8.393C460.639,247.866,457.282,251.223,452.246,251.223z"/>
	<path d="M452.246,284.797h-50.361c-5.036,0-8.393-3.357-8.393-8.393c0-5.036,3.357-8.393,8.393-8.393h50.361
		c5.036,0,8.393,3.357,8.393,8.393C460.639,281.439,457.282,284.797,452.246,284.797z"/>
	<path d="M116.508,503.026H49.361c-5.036,0-8.393-3.357-8.393-8.393v-25.18c0-5.036,3.357-8.393,8.393-8.393h67.148
		c5.036,0,8.393,3.357,8.393,8.393v25.18C124.902,499.669,121.544,503.026,116.508,503.026z M57.754,486.239h50.361v-8.393H57.754
		V486.239z"/>
	<path d="M452.246,503.026h-67.148c-5.036,0-8.393-3.357-8.393-8.393v-25.18c0-5.036,3.357-8.393,8.393-8.393h67.148
		c5.036,0,8.393,3.357,8.393,8.393v25.18C460.639,499.669,457.282,503.026,452.246,503.026z M393.492,486.239h50.361v-8.393h-50.361
		V486.239z"/>
</g>
</svg>